# xmcd CD database file
#
# Track frame offsets:
#	150
#	18637
#	34405
#	53668
#	66904
#	88708
#	103022
#	128107
#	145013
#	170644
#	197209
#	214051
#
# Disc length: 3071 seconds
#
# Revision: 1
# Processed by: cddbd v1.5.2PL0 Copyright (c) Steve Scherf et al.
# Submitted via: CDex 1.51
#
DISCID=b10bfd0c
DTITLE=Mozart - Quatuors à cordes  (Festetics Quartet)  [CD 2-2]
DYEAR=1900
DGENRE=Classique
TTITLE0=Quatuor à cordes N°10 en ut majeur - I. Andante (avec 4 variations)
TTITLE1=Quatuor à cordes N°10 en ut majeur - II. Menuetto
TTITLE2=Quatuor à cordes N°10 en ut majeur - III. Un poco adagio
TTITLE3=Quatuor à cordes N°10 en ut majeur - IV. Rondeaux - Allegro
TTITLE4=Quatuor à cordes N°11 en mi bémol majeur - I. Adagio - Allegro assai - Adagio
TTITLE5=Quatuor à cordes N°11 en mi bémol majeur - II. Menuetto
TTITLE6=Quatuor à cordes N°11 en mi bémol majeur - III. Andante
TTITLE7=Quatuor à cordes N°11 en mi bémol majeur - IV. Allegro assai
TTITLE8=Quatuor à cordes N°12 en si bémol majeur - I. Allegro spirituoso
TTITLE9=Quatuor à cordes N°12 en si bémol majeur - II. Adagio
TTITLE10=Quatuor à cordes N°12 en si bémol majeur - III. Menuetto
TTITLE11=Quatuor à cordes N°12 en si bémol majeur - IV. Allegro assai
EXTD=
EXTT0=
EXTT1=
EXTT2=
EXTT3=
EXTT4=
EXTT5=
EXTT6=
EXTT7=
EXTT8=
EXTT9=
EXTT10=
EXTT11=
PLAYORDER=
